<svg width="24" height="24" viewBox="0 0 24 24" xmlns="http://www.w3.org/2000/svg">
<path fill-rule="evenodd" clip-rule="evenodd" d="M8 7.16667C8 4.86548 9.79086 3 12 3C14.2091 3 16 4.86548 16 7.16667C16 8.83333 15.2 13 12 13C8.8 13 8 8.83333 8 7.16667ZM12 4C13.6188 4 15 5.3789 15 7.16667C15 7.88834 14.819 9.19126 14.2985 10.2756C13.7841 11.3471 13.0586 12 12 12C10.9414 12 10.2159 11.3471 9.70152 10.2756C9.18104 9.19126 9 7.88834 9 7.16667C9 5.3789 10.3812 4 12 4Z"/>
<path d="M15.0646 14.0477C15.3985 13.8056 15.6975 13.5266 15.9648 13.2215C18.296 13.8986 20 16.0503 20 18.6C20 19.3732 19.3732 20 18.6 20H5.4C4.6268 20 4 19.3732 4 18.6C4 16.0503 5.70395 13.8986 8.03522 13.2215C8.30246 13.5266 8.60149 13.8056 8.93536 14.0477C6.7098 14.3697 5 16.2852 5 18.6C5 18.8209 5.17909 19 5.4 19H18.6C18.8209 19 19 18.8209 19 18.6C19 16.2852 17.2902 14.3698 15.0646 14.0477Z"/>
</svg>
