<svg width="24" height="24" viewBox="0 0 24 24" fill="none" xmlns="http://www.w3.org/2000/svg">
<path d="M9.99805 4C9.44574 4 8.99805 4.44772 8.99805 5H5.99805C5.44574 5 4.99805 5.44772 4.99805 6C4.99805 6.55228 5.44574 7 5.99805 7H17.998C18.5504 7 18.998 6.5 18.998 6C18.998 5.5 18.5504 5 17.998 5H14.998C14.998 4.44772 14.5504 4 13.998 4H9.99805Z" fill="white"/>
<path fill-rule="evenodd" clip-rule="evenodd" d="M5.99805 9H17.998V18C17.998 19.1046 17.1026 20 15.998 20H7.99805C6.89349 20 5.99805 19.1046 5.99805 18V9ZM8.99805 11H10.998V18H8.99805V11ZM12.998 11V18H14.998V11H12.998Z" fill="white"/>
</svg>
