<svg width="24" height="24" viewBox="0 0 24 24" fill="none" xmlns="http://www.w3.org/2000/svg">
<path d="M10 6C9.44771 6 9 6.44772 9 7H7.5C7.22386 7 7 7.22385 7 7.5C7 7.77615 7.22386 8 7.5 8H16.5C16.7761 8 17 7.77615 17 7.5C17 7.22385 16.7761 7 16.5 7H15C15 6.44772 14.5523 6 14 6H10Z" fill="white"/>
<path d="M10 11.5C10 11.2238 10.2239 11 10.5 11C10.7761 11 11 11.2238 11 11.5V15.5C11 15.7762 10.7761 16 10.5 16C10.2239 16 10 15.7762 10 15.5V11.5Z" fill="white"/>
<path d="M13.5 11C13.2239 11 13 11.2238 13 11.5V15.5C13 15.7762 13.2239 16 13.5 16C13.7761 16 14 15.7762 14 15.5V11.5C14 11.2238 13.7761 11 13.5 11Z" fill="white"/>
<path fill-rule="evenodd" clip-rule="evenodd" d="M9 9C8.44771 9 8 9.44772 8 10V17C8 17.5523 8.44771 18 9 18H15C15.5523 18 16 17.5523 16 17V10C16 9.44772 15.5523 9 15 9H9ZM15 10H9V17H15V10Z" fill="white"/>
</svg>
