<svg width="64" height="64" viewBox="0 0 64 64" fill="none" xmlns="http://www.w3.org/2000/svg">
<path d="M7.49991 48.3L31.4999 56.8C31.5499 56.8 31.5999 56.85 31.6499 56.85C31.6999 56.85 31.6999 56.85 31.7499 56.85C31.7999 56.85 31.8499 56.85 31.9499 56.85H31.9999C32.0999 56.85 32.1499 56.85 32.2499 56.85H32.2999C32.3499 56.85 32.3999 56.8 32.4499 56.8L56.4499 48.3C57.0499 48.1 57.4499 47.5 57.4499 46.9V30.1L62.4499 28.35C62.8499 28.2 63.1999 27.85 63.3499 27.45C63.4999 27.05 63.4499 26.55 63.1999 26.15L57.1999 16.15C57.1999 16.15 57.1999 16.15 57.1999 16.1C57.1999 16.05 57.1499 16.05 57.1499 16C57.1499 16 57.1499 16 57.1499 15.95C57.1499 15.9 57.0999 15.9 57.0999 15.85L57.0499 15.8C57.0499 15.8 57.0499 15.8 56.9999 15.75C56.9999 15.75 56.9999 15.75 56.9499 15.75C56.8999 15.75 56.8999 15.7 56.8499 15.7L56.7999 15.65C56.7999 15.65 56.7999 15.65 56.7499 15.65H56.6999C56.6499 15.65 56.6499 15.6 56.5999 15.6C56.5499 15.6 56.5499 15.6 56.4999 15.55C56.4999 15.55 56.4999 15.55 56.4499 15.55L32.4499 7.05C32.3499 7 32.2499 7 32.1499 7H32.0999C31.9999 7 31.9499 7 31.8499 7C31.7999 7 31.7999 7 31.7499 7C31.6499 7 31.5499 7.05 31.4499 7.05L7.44991 15.55C7.44991 15.55 7.39991 15.55 7.39991 15.6C7.34991 15.65 7.24991 15.65 7.19991 15.7C7.09991 15.75 6.99991 15.85 6.89991 15.95L6.84991 16C6.79991 16.05 6.79991 16.1 6.74991 16.1C6.74991 16.1 6.74991 16.1 6.69991 16.15L0.699912 26.15C0.499912 26.5 0.449912 27 0.599912 27.4C0.749912 27.8 1.09991 28.15 1.49991 28.3L6.49991 30.05V46.9C6.49991 47.55 6.89991 48.1 7.49991 48.3ZM54.4999 45.85L33.4999 53.3V41.25C33.4999 40.4 32.8499 39.75 31.9999 39.75C31.1499 39.75 30.4999 40.4 30.4999 41.25V53.3L9.49991 45.85V31.15L25.4999 36.8C25.6499 36.85 25.8499 36.9 25.9999 36.9C26.4999 36.9 26.9999 36.65 27.2999 36.15L31.9999 28.3L36.6999 36.15C36.9999 36.65 37.4999 36.9 37.9999 36.9C38.1499 36.9 38.3499 36.85 38.4999 36.8L54.4999 31.15V45.85ZM33.4999 10.5L51.4999 16.9L33.4999 23.3V10.5ZM38.6499 33.6L34.1999 26.2L55.2999 18.7L59.7499 26.1L38.6499 33.6ZM8.64991 18.7L29.7499 26.2L25.2999 33.6L4.19991 26.1L8.64991 18.7Z" fill="white" fill-opacity="0.15"/>
</svg>
