<svg width="16" height="16" viewBox="0 0 16 16" xmlns="http://www.w3.org/2000/svg">
<path d="M14.5815 1.85355C14.7767 1.65829 14.7767 1.34171 14.5815 1.14645C14.3862 0.951185 14.0696 0.951185 13.8744 1.14645L7.86396 7.15685L1.85355 1.14645C1.65829 0.951184 1.34171 0.951185 1.14645 1.14645C0.951185 1.34171 0.951185 1.65829 1.14645 1.85355L7.15685 7.86396L1.14645 13.8744C0.951184 14.0696 0.951184 14.3862 1.14645 14.5815C1.34171 14.7767 1.65829 14.7767 1.85355 14.5815L7.86396 8.57107L13.8744 14.5815C14.0696 14.7767 14.3862 14.7767 14.5815 14.5815C14.7767 14.3862 14.7767 14.0696 14.5815 13.8744L8.57107 7.86396L14.5815 1.85355Z"/>
</svg>
