<svg width="16" height="16" viewBox="0 0 16 16" fill="none" xmlns="http://www.w3.org/2000/svg">
<path d="M8.66753 7.89002L11.3895 10.612C11.6043 10.8268 11.6043 11.175 11.3895 11.3898C11.1747 11.6046 10.8264 11.6046 10.6117 11.3898L7.88971 8.66784L5.16777 11.3898C4.95298 11.6046 4.60474 11.6046 4.38995 11.3898C4.17516 11.175 4.17516 10.8268 4.38995 10.612L7.1119 7.89002L4.38912 5.16724C4.17433 4.95245 4.17433 4.60421 4.38912 4.38942C4.60391 4.17464 4.95215 4.17464 5.16694 4.38942L7.88971 7.1122L10.6125 4.38942C10.8273 4.17464 11.1755 4.17464 11.3903 4.38942C11.6051 4.60421 11.6051 4.95245 11.3903 5.16724L8.66753 7.89002Z" fill="white"/>
</svg>
