<svg width="24" height="24" viewBox="0 0 24 24" fill="none" xmlns="http://www.w3.org/2000/svg">
<path d="M8 9.5C8 8.67157 8.67157 8 9.5 8H15C15.2761 8 15.5 7.77614 15.5 7.5C15.5 7.22386 15.2761 7 15 7H9.5C8.11929 7 7 8.11929 7 9.5V15C7 15.2761 7.22386 15.5 7.5 15.5C7.77614 15.5 8 15.2761 8 15V9.5Z" fill="white"/>
<path fill-rule="evenodd" clip-rule="evenodd" d="M9 10C9 9.44772 9.44772 9 10 9H16C16.5523 9 17 9.44772 17 10V16C17 16.5523 16.5523 17 16 17H10C9.44772 17 9 16.5523 9 16V10ZM10 10H16V16H10V10Z" fill="white"/>
</svg>
