<svg width="24" height="24" viewBox="0 0 24 24" fill="none" xmlns="http://www.w3.org/2000/svg">
<path fill-rule="evenodd" clip-rule="evenodd" d="M18 8H8L8 18H18V8ZM8 7C7.44772 7 7 7.44772 7 8V18C7 18.5523 7.44772 19 8 19H18C18.5523 19 19 18.5523 19 18V8C19 7.44772 18.5523 7 18 7H8Z" fill="white"/>
<path d="M8 6H15.5C15.7761 6 16 5.77614 16 5.5C16 5.22386 15.7761 5 15.5 5H8C6.34315 5 5 6.34315 5 8V15.5C5 15.7761 5.22386 16 5.5 16C5.77614 16 6 15.7761 6 15.5V8C6 6.89543 6.89543 6 8 6Z" fill="white"/>
</svg>
