<svg width="24" height="24" viewBox="0 0 24 24" xmlns="http://www.w3.org/2000/svg">
<path d="M7.61084 12.1109L11.4999 16L15.3889 12.1109C15.5842 11.9156 15.5842 11.5991 15.3889 11.4038C15.1937 11.2086 14.8771 11.2086 14.6819 11.4038L11.9999 14.0858V7.5C11.9999 7.22385 11.776 7 11.4999 7C11.2238 7 10.9999 7.22385 10.9999 7.5V14.0858L8.31787 11.4038C8.12268 11.2086 7.80603 11.2086 7.61084 11.4038C7.41553 11.5991 7.41553 11.9156 7.61084 12.1109Z"/>
<path fill-rule="evenodd" clip-rule="evenodd" d="M21 11.5C21 16.7467 16.7467 21 11.5 21C6.25329 21 2 16.7467 2 11.5C2 6.25329 6.25329 2 11.5 2C16.7467 2 21 6.25329 21 11.5ZM20 11.5C20 16.1944 16.1944 20 11.5 20C6.80558 20 3 16.1944 3 11.5C3 6.80558 6.80558 3 11.5 3C16.1944 3 20 6.80558 20 11.5Z"/>
</svg>
