<svg width="24" height="24" viewBox="0 0 24 24" fill="none" xmlns="http://www.w3.org/2000/svg">
<path fill-rule="evenodd" clip-rule="evenodd" d="M5.99963 12.9999C4.96362 12.9999 4.61133 14.3817 5.52081 14.8778L17.5209 20.8778C18.1873 21.2413 18.9998 20.759 18.9998 19.9999V13.9999C18.9998 13.4476 18.5521 12.9999 17.9998 12.9999L5.99963 12.9999ZM6.00775 13.9999L17.9642 19.9805L17.9998 19.9999V13.9999L6.00775 13.9999Z" fill="white"/>
<path d="M5.52081 9.12354C4.61133 9.61963 4.96362 11.0014 5.99963 11.0014L17.9998 11.0014C18.5521 11.0014 18.9998 10.5537 18.9998 10.0014V4.00141C18.9998 3.24237 18.1873 2.76001 17.5209 3.12354L5.52081 9.12354Z" fill="white"/>
</svg>
