<svg width="24" height="24" viewBox="0 0 24 24" fill="none" xmlns="http://www.w3.org/2000/svg">
<path d="M17.046 7.90381C19.5844 10.4422 19.5844 14.5578 17.046 17.0962C14.5076 19.6346 10.392 19.6346 7.85357 17.0962C7.65831 16.9009 7.34173 16.9009 7.14647 17.0962C6.95121 17.2915 6.95121 17.608 7.14647 17.8033C10.0754 20.7322 14.8241 20.7322 17.7531 17.8033C20.682 14.8744 20.682 10.1256 17.7531 7.1967C14.8241 4.26777 10.0754 4.26777 7.14647 7.1967C6.95121 7.39196 6.95121 7.70854 7.14647 7.9038C7.34173 8.09907 7.65831 8.09907 7.85357 7.9038C10.392 5.3654 14.5076 5.3654 17.046 7.90381Z" fill="white"/>
<path d="M14 12.4995L11.1109 15.3885C10.9156 15.5838 10.5991 15.5838 10.4038 15.3885C10.2086 15.1933 10.2086 14.8767 10.4038 14.6815L12.0858 12.9995L4.5 12.9995C4.22385 12.9995 4 12.7756 4 12.4995C4 12.2234 4.22385 11.9995 4.5 11.9995L12.0858 11.9995L10.4038 10.3175C10.2086 10.1223 10.2086 9.80563 10.4038 9.61044C10.5991 9.41512 10.9156 9.41512 11.1109 9.61044L14 12.4995Z" fill="white"/>
</svg>
