<svg width="24" height="24" viewBox="0 0 24 24" fill="none" xmlns="http://www.w3.org/2000/svg">
<path d="M6.90381 17.0962C4.3654 14.5578 4.3654 10.4422 6.90381 7.90381C9.44221 5.3654 13.5578 5.3654 16.0962 7.90381C16.2915 8.09907 16.608 8.09907 16.8033 7.90381C16.9986 7.70854 16.9986 7.39196 16.8033 7.1967C13.8744 4.26777 9.12563 4.26777 6.1967 7.1967C3.26777 10.1256 3.26777 14.8744 6.1967 17.8033C9.12563 20.7322 13.8744 20.7322 16.8033 17.8033C16.9986 17.608 16.9986 17.2915 16.8033 17.0962C16.608 16.9009 16.2915 16.9009 16.0962 17.0962C13.5578 19.6346 9.44221 19.6346 6.90381 17.0962Z" fill="white"/>
<path d="M22 12.4995L19.1109 15.3885C18.9156 15.5838 18.5991 15.5838 18.4038 15.3885C18.2086 15.1933 18.2086 14.8767 18.4038 14.6815L20.0858 12.9995L12.5 12.9995C12.2238 12.9995 12 12.7756 12 12.4995C12 12.2234 12.2238 11.9995 12.5 11.9995L20.0858 11.9995L18.4038 10.3175C18.2086 10.1223 18.2086 9.80563 18.4038 9.61044C18.5991 9.41513 18.9156 9.41513 19.1109 9.61044L22 12.4995Z" fill="white"/>
</svg>
