<svg width="64" height="64" viewBox="0 0 64 64" fill="none" xmlns="http://www.w3.org/2000/svg">
<path d="M25.5 28C26.8807 28 28 26.8807 28 25.5C28 24.1193 26.8807 23 25.5 23C24.1193 23 23 24.1193 23 25.5C23 26.8807 24.1193 28 25.5 28Z" fill="white" fill-opacity="0.15"/>
<path d="M41 25.5C41 26.8807 39.8807 28 38.5 28C37.1193 28 36 26.8807 36 25.5C36 24.1193 37.1193 23 38.5 23C39.8807 23 41 24.1193 41 25.5Z" fill="white" fill-opacity="0.15"/>
<path d="M42.8864 42.7927C44.0497 43.1529 44.41 44.5862 43.4697 45.3601C43.0408 45.713 42.4583 45.8 41.9275 45.6364C36.4735 43.9552 30.3332 43 23.8089 43C23.1145 43 22.4244 43.0108 21.7391 43.0322C21.1927 43.0492 20.6642 42.82 20.3434 42.3773C19.6217 41.3812 20.3535 40.0751 21.5829 40.0356C22.3203 40.012 23.0625 40 23.8089 40C30.6363 40 37.1046 41.002 42.8864 42.7927Z" fill="white" fill-opacity="0.15"/>
<path fill-rule="evenodd" clip-rule="evenodd" d="M11.5 52.5C16.95 58 24.25 61 32 61C39.75 61 47.05 58 52.5 52.5C58 47.05 61 39.75 61 32C61 24.25 58 17 52.5 11.5C47.05 6 39.75 3 32 3C24.25 3 17 6 11.5 11.5C6 16.95 3 24.25 3 32C3 39.75 6 47.05 11.5 52.5ZM13.6 13.6C18.55 8.7 25.05 6 32 6C38.95 6 45.45 8.7 50.4 13.6C55.3 18.55 58 25.05 58 32C58 38.95 55.35 45.5 50.4 50.4C45.45 55.3 38.95 58 32 58C25.05 58 18.5 55.35 13.6 50.4C8.7 45.45 6 38.95 6 32C6 25.05 8.65 18.5 13.6 13.6Z" fill="white" fill-opacity="0.15"/>
</svg>
