<svg viewBox="0 0 24 24" fill="none" xmlns="http://www.w3.org/2000/svg">
<path d="M15.3608 4.32449C15.1621 4.12784 15.1621 3.80689 15.3608 3.61024C15.5566 3.41638 15.872 3.41638 16.0678 3.61024L20 7.5029L16.0678 11.3956C15.872 11.5894 15.5566 11.5894 15.3608 11.3956C15.1621 11.1989 15.1621 10.878 15.3608 10.6813L18.069 8.00031H10C7.23858 8.00031 5 10.2389 5 13.0003C5 15.7617 7.23858 18.0003 10 18.0003H18.5C18.7761 18.0003 19 18.2242 19 18.5003C19 18.7764 18.7761 19.0003 18.5 19.0003H10C6.68629 19.0003 4 16.314 4 13.0003C4 9.6866 6.68629 7.00031 10 7.00031H18.0637L15.3608 4.32449Z" fill="white"/>
</svg>
