<svg width="24" height="24" viewBox="0 0 24 24" fill="none" xmlns="http://www.w3.org/2000/svg">
<path fill-rule="evenodd" clip-rule="evenodd" d="M20.1464 3.14645C20.3417 2.95118 20.6583 2.95118 20.8536 3.14645C21.0488 3.34171 21.0488 3.65829 20.8536 3.85355L18 6.70711V15.5C18 15.7761 17.7761 16 17.5 16C17.2239 16 17 15.7761 17 15.5V7.70711L7.85355 16.8536C7.85347 16.8536 7.85364 16.8535 7.85355 16.8536C8.04937 16.9473 8.26843 17 8.5 17L17.4995 17H20.5C20.7761 17 21 17.2239 21 17.5C21 17.7761 20.7761 18 20.5 18H18V20.5C18 20.7761 17.7761 21 17.5 21C17.2239 21 17 20.7761 17 20.5V18L8.5 18C7.11929 18 6 16.8807 6 15.5L6 7H3.5C3.22386 7 3 6.77614 3 6.5C3 6.22386 3.22386 6 3.5 6H6L6 3.5C6 3.22386 6.22386 3 6.5 3C6.77614 3 7 3.22386 7 3.5L7 6.49901C7 6.49934 7 6.49868 7 6.49901C7 6.49934 7 6.50066 7 6.50099L7 15.5C7 15.7316 7.05248 15.9509 7.14618 16.1467C7.14627 16.1466 7.1461 16.1468 7.14618 16.1467L16.2929 7H8.5C8.22386 7 8 6.77614 8 6.5C8 6.22386 8.22386 6 8.5 6H17.2929L20.1464 3.14645Z" fill="white"/>
</svg>
