<svg width="24" height="24" viewBox="0 0 24 24" fill="none" xmlns="http://www.w3.org/2000/svg">
<path d="M15.8888 8.71752C16.084 8.52225 16.084 8.20567 15.8888 8.01041L13.8644 5.98604C14.1203 5.98739 14.3868 5.99159 14.6048 5.99503C14.7762 5.99773 14.9175 5.99996 15 5.99996C18.866 5.99996 22 9.13396 22 13C22 16.866 18.866 20 15 20C14.2255 20 13.4802 19.8741 12.7837 19.6418C12.5902 19.5773 12.3748 19.6211 12.2305 19.7654C11.976 20.0198 12.0553 20.4493 12.3956 20.5664C13.212 20.8474 14.0882 21 15 21C19.4183 21 23 17.4182 23 13C23 8.58168 19.4183 4.99996 15 4.99996C14.9103 4.99996 14.7505 4.99709 14.5582 4.99363C14.3788 4.99041 14.1711 4.98668 13.9652 4.98429L15.8888 3.06065C16.0841 2.86539 16.0841 2.5488 15.8888 2.35354C15.6936 2.15828 15.377 2.15828 15.1817 2.35354L11.9997 5.53554L15.1817 8.71752C15.3769 8.91278 15.6935 8.91278 15.8888 8.71752Z" fill="white"/>
<path fill-rule="evenodd" clip-rule="evenodd" d="M2.4144 13.8033C1.63335 13.0222 1.63335 11.7559 2.4144 10.9748L6.47505 6.9142C7.2561 6.13315 8.52243 6.13315 9.30348 6.9142L13.3641 10.9748C14.1452 11.7559 14.1452 13.0222 13.3641 13.8033L9.30347 17.8639C8.52243 18.645 7.2561 18.645 6.47505 17.8639L2.4144 13.8033ZM7.18215 7.62131C7.57268 7.23078 8.20584 7.23078 8.59637 7.62131L12.657 11.682C13.0475 12.0725 13.0475 12.7056 12.657 13.0962L8.59637 17.1568C8.20584 17.5473 7.57268 17.5473 7.18216 17.1568L3.12151 13.0962C2.73098 12.7056 2.73098 12.0725 3.12151 11.682L7.18215 7.62131Z" fill="white"/>
</svg>
