<svg width="24" height="24" viewBox="0 0 24 24" fill="none" xmlns="http://www.w3.org/2000/svg">
<path d="M11 8.5C11 8.22385 11.2239 8 11.5 8C11.7761 8 12 8.22385 12 8.5V11H14.5C14.7761 11 15 11.2238 15 11.5C15 11.7762 14.7761 12 14.5 12H12V14.5C12 14.7762 11.7761 15 11.5 15C11.2239 15 11 14.7762 11 14.5V12H8.5C8.22388 12 8 11.7762 8 11.5C8 11.2238 8.22388 11 8.5 11H11V8.5Z" fill="white"/>
<path fill-rule="evenodd" clip-rule="evenodd" d="M21 11.5C21 16.7467 16.7467 21 11.5 21C6.2533 21 2 16.7467 2 11.5C2 6.2533 6.2533 2 11.5 2C16.7467 2 21 6.2533 21 11.5ZM20 11.5C20 16.1944 16.1945 20 11.5 20C6.80554 20 3 16.1944 3 11.5C3 6.80557 6.80554 3 11.5 3C16.1945 3 20 6.80557 20 11.5Z" fill="white"/>
</svg>
