<svg width="24" height="24" viewBox="0 0 24 24" xmlns="http://www.w3.org/2000/svg">
<path fill-rule="evenodd" clip-rule="evenodd" d="M13.8745 14.5815C12.8291 15.4664 11.4769 16 10 16C6.68629 16 4 13.3137 4 10C4 6.68629 6.68629 4 10 4C13.3137 4 16 6.68629 16 10C16 11.4768 15.4664 12.829 14.5816 13.8744L18.6446 17.9374C18.8398 18.1326 18.8398 18.4492 18.6446 18.6445C18.4493 18.8397 18.1327 18.8397 17.9375 18.6445L13.8745 14.5815ZM15 10C15 12.7614 12.7614 15 10 15C7.23858 15 5 12.7614 5 10C5 7.23858 7.23858 5 10 5C12.7614 5 15 7.23858 15 10Z" />
</svg>
