<svg width="64" height="64" viewBox="0 0 64 64" fill="none" xmlns="http://www.w3.org/2000/svg">
<path fill-rule="evenodd" clip-rule="evenodd" d="M12.7004 39.5992C16.4004 43.2992 21.3004 45.1492 26.1504 45.1492C30.5743 45.1492 34.9575 43.6412 38.4903 40.6253C38.5379 40.6866 38.5912 40.7448 38.6504 40.799L41.9004 44.049C41.6004 44.649 41.4504 45.299 41.4504 45.999C41.4504 47.199 41.9004 48.349 42.7504 49.199L49.1504 55.499C50.0504 56.399 51.2004 56.799 52.3504 56.799C53.5004 56.799 54.6504 56.349 55.5504 55.499C57.2504 53.749 57.2504 50.899 55.5004 49.149L49.1504 42.799C48.3004 41.949 47.1504 41.499 45.9504 41.499C45.2504 41.499 44.6004 41.649 44.0004 41.949L40.7504 38.699C40.695 38.6436 40.6365 38.5933 40.5757 38.5481C46.9846 31.0991 46.6573 19.8084 39.5504 12.7492C32.1504 5.34922 20.1004 5.34922 12.7004 12.7492C5.30039 20.1492 5.30039 32.1992 12.7004 39.5992ZM14.8504 14.8992C17.9504 11.7492 22.0504 10.1992 26.1504 10.1992C30.2504 10.1992 34.3504 11.7492 37.5004 14.8492C43.7504 21.0992 43.7504 31.2492 37.5004 37.4992C31.2504 43.6992 21.1004 43.6992 14.8504 37.5492C8.60039 31.2992 8.60039 21.1492 14.8504 14.8992ZM51.3004 53.399C51.8504 53.999 52.8004 53.999 53.4004 53.399C54.0004 52.799 54.0004 51.849 53.3504 51.299L47.0004 44.949C46.7504 44.649 46.3504 44.499 45.9504 44.499C45.5504 44.499 45.2004 44.649 44.9004 44.949C44.6004 45.199 44.4504 45.599 44.4504 45.999C44.4504 46.399 44.6004 46.749 44.9004 47.049L51.3004 53.399Z" fill="white" fill-opacity="0.15"/>
</svg>
