<svg width="24" height="24" viewBox="0 0 24 24" fill="none" xmlns="http://www.w3.org/2000/svg">
<path d="M12 13C12.5523 13 13 12.5523 13 12C13 11.4477 12.5523 11 12 11C11.4477 11 11 11.4477 11 12C11 12.5523 11.4477 13 12 13Z" fill="white"/>
<path fill-rule="evenodd" clip-rule="evenodd" d="M11.5004 6.0205C11.5001 6.0137 11.5 6.00687 11.5 6V4C11.5 3.72386 11.7239 3.5 12 3.5C12.2761 3.5 12.5 3.72386 12.5 4V6C12.5 6.00687 12.4999 6.0137 12.4996 6.0205C13.7811 6.12614 14.9484 6.6345 15.8747 7.41874C15.8794 7.41369 15.8842 7.40871 15.8891 7.40381L17.3033 5.9896C17.4986 5.79433 17.8151 5.79433 18.0104 5.9896C18.2057 6.18486 18.2057 6.50144 18.0104 6.6967L16.5962 8.11092C16.5913 8.11582 16.5863 8.12059 16.5812 8.12525C17.3655 9.05156 17.8739 10.2189 17.9795 11.5004C17.9863 11.5001 17.9931 11.5 18 11.5H20C20.2761 11.5 20.5 11.7239 20.5 12C20.5 12.2761 20.2761 12.5 20 12.5H18C17.9931 12.5 17.9863 12.4999 17.9795 12.4996C17.8739 13.7811 17.3655 14.9484 16.5813 15.8747C16.5863 15.8794 16.5913 15.8842 16.5962 15.8891L18.0104 17.3033C18.2057 17.4986 18.2057 17.8151 18.0104 18.0104C17.8152 18.2057 17.4986 18.2057 17.3033 18.0104L15.8891 16.5962C15.8842 16.5913 15.8794 16.5863 15.8748 16.5812C14.9484 17.3655 13.7811 17.8739 12.4996 17.9795C12.4999 17.9863 12.5 17.9931 12.5 18V20C12.5 20.2761 12.2761 20.5 12 20.5C11.7239 20.5 11.5 20.2761 11.5 20V18C11.5 17.9931 11.5001 17.9863 11.5004 17.9795C10.2189 17.8739 9.05154 17.3655 8.12522 16.5812C8.12056 16.5863 8.11577 16.5913 8.11086 16.5962L6.69665 18.0104C6.50138 18.2057 6.1848 18.2057 5.98954 18.0104C5.79428 17.8151 5.79428 17.4986 5.98954 17.3033L7.40375 15.8891L7.41194 15.8811L7.41873 15.8747C6.63449 14.9484 6.12613 13.7811 6.0205 12.4996C6.0137 12.4999 6.00687 12.5 6 12.5H4C3.72386 12.5 3.5 12.2761 3.5 12C3.5 11.7239 3.72386 11.5 4 11.5H6C6.00687 11.5 6.0137 11.5001 6.0205 11.5004C6.12613 10.2189 6.63449 9.05158 7.41874 8.12527C7.41367 8.1206 7.40868 8.11582 7.40377 8.11091L5.98956 6.6967C5.79429 6.50143 5.79429 6.18485 5.98956 5.98959C6.18482 5.79433 6.5014 5.79433 6.69666 5.98959L8.11088 7.4038C8.11579 7.40871 8.12057 7.4137 8.12523 7.41876C9.05155 6.63451 10.2189 6.12614 11.5004 6.0205ZM17 12C17 14.7614 14.7614 17 12 17C9.23858 17 7 14.7614 7 12C7 9.23858 9.23858 7 12 7C14.7614 7 17 9.23858 17 12Z" fill="white"/>
</svg>
