<svg viewBox="0 0 24 24" fill="none" xmlns="http://www.w3.org/2000/svg">
<path d="M8.63925 4.32449C8.83789 4.12784 8.83789 3.80689 8.63925 3.61024C8.44342 3.41638 8.12801 3.41638 7.93218 3.61024L4 7.5029L7.93218 11.3956C8.12801 11.5894 8.44342 11.5894 8.63925 11.3956C8.83789 11.1989 8.83789 10.878 8.63925 10.6813L5.93103 8.00031H14C16.7614 8.00031 19 10.2389 19 13.0003C19 15.7617 16.7614 18.0003 14 18.0003H5.5C5.22386 18.0003 5 18.2242 5 18.5003C5 18.7764 5.22386 19.0003 5.5 19.0003H14C17.3137 19.0003 20 16.314 20 13.0003C20 9.6866 17.3137 7.00031 14 7.00031H5.93626L8.63925 4.32449Z" fill="white"/>
</svg>
