<svg viewBox="0 0 24 24" xmlns="http://www.w3.org/2000/svg">
<path d="M12.5 4L8.64519 7.8891C8.4516 8.08435 8.4516 8.40094 8.64519 8.59619C8.83866 8.79144 9.15253 8.79144 9.346 8.59619L12.0044 5.91422V14.5C12.0044 14.7762 12.2263 15 12.5 15C12.7737 15 12.9956 14.7762 12.9956 14.5V5.91422L15.654 8.59619C15.8474 8.79144 16.1613 8.79144 16.3547 8.59619C16.5484 8.40094 16.5484 8.08435 16.3547 7.8891L12.5 4Z"/>
<path d="M6 19C5.72388 19 5.5 19.2238 5.5 19.5C5.5 19.7762 5.72388 20 6 20H18C18.2761 20 18.5 19.7762 18.5 19.5C18.5 19.2238 18.2761 19 18 19H6Z"/>
</svg>
