<svg width="24" height="24" viewBox="0 0 24 24" xmlns="http://www.w3.org/2000/svg">
<path d="M5 5C4.44771 5 4 5.44769 4 6C4 6.55231 4.44771 7 5 7H19C19.5523 7 20 6.55231 20 6C20 5.44769 19.5523 5 19 5H5Z"/>
<path d="M8 9C7.44771 9 7 9.44769 7 10C7 10.5523 7.44771 11 8 11H16C16.5523 11 17 10.5523 17 10C17 9.44769 16.5523 9 16 9H8Z"/>
<path d="M4 14C4 13.4477 4.44771 13 5 13H19C19.5523 13 20 13.4477 20 14C20 14.5523 19.5523 15 19 15H5C4.44771 15 4 14.5523 4 14Z"/>
<path d="M8 17C7.44771 17 7 17.4477 7 18C7 18.5523 7.44771 19 8 19H16C16.5523 19 17 18.5523 17 18C17 17.4477 16.5523 17 16 17H8Z"/>
</svg>
