<svg width="24" height="24" viewBox="0 0 24 24" xmlns="http://www.w3.org/2000/svg">
<path d="M5 5C4.44771 5 4 5.44769 4 6C4 6.55231 4.44771 7 5 7H19C19.5523 7 20 6.55231 20 6C20 5.44769 19.5523 5 19 5H5Z"/>
<path d="M5 9C4.44771 9 4 9.44769 4 10C4 10.5523 4.44771 11 5 11H13C13.5523 11 14 10.5523 14 10C14 9.44769 13.5523 9 13 9H5Z"/>
<path d="M4 14C4 13.4477 4.44771 13 5 13H19C19.5523 13 20 13.4477 20 14C20 14.5523 19.5523 15 19 15H5C4.44771 15 4 14.5523 4 14Z"/>
<path d="M5 17C4.44771 17 4 17.4477 4 18C4 18.5523 4.44771 19 5 19H13C13.5523 19 14 18.5523 14 18C14 17.4477 13.5523 17 13 17H5Z"/>
</svg>
