<svg width="24" height="24" viewBox="0 0 24 24" xmlns="http://www.w3.org/2000/svg">
<path d="M5 5C4.44771 5 4 5.44769 4 6C4 6.55231 4.44771 7 5 7H19C19.5523 7 20 6.55231 20 6C20 5.44769 19.5523 5 19 5H5Z"/>
<path d="M11 9C10.4477 9 10 9.44769 10 10C10 10.5523 10.4477 11 11 11H19C19.5523 11 20 10.5523 20 10C20 9.44769 19.5523 9 19 9H11Z"/>
<path d="M4 14C4 13.4477 4.44771 13 5 13H19C19.5523 13 20 13.4477 20 14C20 14.5523 19.5523 15 19 15H5C4.44771 15 4 14.5523 4 14Z"/>
<path d="M11 17C10.4477 17 10 17.4477 10 18C10 18.5523 10.4477 19 11 19H19C19.5523 19 20 18.5523 20 18C20 17.4477 19.5523 17 19 17H11Z"/>
</svg>
