<svg width="24" height="24" viewBox="0 0 24 24" xmlns="http://www.w3.org/2000/svg">
<path fill-rule="evenodd" clip-rule="evenodd" d="M2.61065 17.3225C2.31391 18.1378 2.91765 19 3.78527 19C4.31076 19 4.78015 18.6713 4.95988 18.1775L5.75244 16H12.2471L13.0397 18.1775C13.2194 18.6713 13.6888 19 14.2143 19C15.0819 19 15.6857 18.1378 15.3889 17.3225L11.0189 5.31596C10.7313 4.52587 9.98033 4 9.13953 4H8.86005C8.01925 4 7.26823 4.52587 6.98066 5.31596L2.61065 17.3225ZM8.99979 7.07797L11.5192 14H6.48038L8.99979 7.07797Z"/>
<path d="M20.0001 10C20.5524 10 21.0001 10.4477 21.0001 11C21.0001 11.5523 20.5524 12 20.0001 12H16.0001C15.4478 12 15.0001 11.5523 15.0001 11C15.0001 10.4477 15.4478 10 16.0001 10L20.0001 10Z"/>
</svg>
