<svg width="38" height="38" viewBox="0 0 38 38" fill="none" xmlns="http://www.w3.org/2000/svg">
  <circle cx="19" cy="19" r="19" fill="#3B5998"/>
  <path d="M22.2116 16.6H20.3686V15C20.3686 14.1744 20.433 13.6544 21.5673 13.6544H22.2331C22.6564 13.6544 23 13.296 23 12.8544V11.8512C23 11.4328 22.6925 11.0752 22.2921 11.0472C21.8289 11.0144 21.3649 10.9992 20.9001 11C18.8194 11 17.3008 12.3256 17.3008 14.7592V16.6H15.7669C15.3436 16.6 15 16.9584 15 17.4V19C15 19.4416 15.3436 19.8 15.7669 19.8L17.3008 19.7992V26.2C17.3008 26.6416 17.6444 27 18.0678 27H19.6017C20.025 27 20.3686 26.6416 20.3686 26.2V19.7976L22.036 19.7968C22.4256 19.7968 22.753 19.492 22.7975 19.088L22.9732 17.4912C23.0261 17.0168 22.6702 16.6 22.2116 16.6Z" fill="white"/>
</svg>
