<svg width="38" height="38" viewBox="0 0 38 38" fill="none" xmlns="http://www.w3.org/2000/svg">
  <circle cx="19" cy="19" r="19" fill="#BD081C"/>
  <path d="M19 12C14.582 12 11 15.582 11 20C11 23.3893 13.1087 26.284 16.0847 27.4493C16.0147 26.8167 15.9513 25.8453 16.1127 25.1547C16.258 24.5307 17.0507 21.178 17.0507 21.178C17.0507 21.178 16.8113 20.6987 16.8113 19.9907C16.8113 18.878 17.456 18.048 18.2587 18.048C18.9413 18.048 19.2707 18.5607 19.2707 19.1747C19.2707 19.8613 18.834 20.8873 18.608 21.838C18.4193 22.6347 19.0073 23.284 19.7927 23.284C21.2147 23.284 22.3073 21.7847 22.3073 19.6207C22.3073 17.7053 20.9313 16.366 18.966 16.366C16.69 16.366 15.354 18.0733 15.354 19.838C15.354 20.5253 15.6187 21.2627 15.9493 21.664C16.0147 21.7433 16.024 21.8127 16.0047 21.8933C15.944 22.146 15.8093 22.6893 15.7827 22.8007C15.748 22.9473 15.6667 22.978 15.5153 22.9073C14.516 22.442 13.8913 20.9813 13.8913 19.808C13.8913 17.2847 15.7247 14.9667 19.1773 14.9667C21.9527 14.9667 24.1093 16.944 24.1093 19.5873C24.1093 22.3447 22.3707 24.5633 19.958 24.5633C19.1473 24.5633 18.3853 24.142 18.1247 23.6447C18.1247 23.6447 17.7233 25.172 17.626 25.5467C17.4453 26.2413 16.958 27.1127 16.6313 27.644C17.38 27.8747 18.1753 28 19 28C23.418 28 27 24.418 27 20C27 15.582 23.418 12 19 12Z" fill="white"/>
</svg>
