<svg width="38" height="38" viewBox="0 0 38 38" fill="none" xmlns="http://www.w3.org/2000/svg">
  <circle cx="19" cy="19" r="19" fill="#FF4500"/>
  <path d="M20.8424 11C20.235 11 19.665 11.2735 19.2994 11.6679C18.9337 12.0623 18.7322 12.5431 18.5854 13.0497C18.3522 13.8645 18.2802 14.7684 18.263 15.5831C16.5558 15.6839 15.0099 16.133 13.7259 16.8268C13.2048 16.4382 12.5772 16.2222 11.9756 16.228C11.2904 16.2338 10.6398 16.4957 10.1561 17.0341C9.232 18.0618 9.33852 19.7431 10.4095 20.742C10.3432 21.0501 10.2943 21.3667 10.2943 21.6863C10.2943 25.0718 14.1923 27.8125 19 27.8125C23.8076 27.8125 27.7056 25.069 27.7056 21.6863C27.7056 21.3667 27.6567 21.0501 27.5904 20.742C28.6614 19.7431 28.7679 18.0618 27.8438 17.0341C27.3601 16.4957 26.7095 16.2338 26.0244 16.228C25.4227 16.2222 24.7951 16.4382 24.274 16.8268C22.9958 16.1359 21.4585 15.6868 19.76 15.5831C19.783 14.8318 19.8435 14.0516 20.0133 13.4643C20.1198 13.0958 20.2465 12.8281 20.3818 12.6812C20.5171 12.5344 20.615 12.474 20.8424 12.474C21.3347 12.474 21.398 12.615 21.6946 12.9576C21.8443 13.1304 22.017 13.3463 22.2934 13.5564C22.5697 13.7666 22.9785 13.9479 23.4219 13.9479V12.474C23.2981 12.474 23.275 12.4711 23.1916 12.4049C23.1081 12.3387 22.9929 12.1861 22.8231 11.9903C22.4834 11.5959 21.8241 11 20.8424 11ZM25.6328 11.1382C24.487 11.1382 23.5601 12.0652 23.5601 13.211C23.5601 14.3567 24.487 15.2837 25.6328 15.2837C26.7786 15.2837 27.7056 14.3567 27.7056 13.211C27.7056 12.0652 26.7786 11.1382 25.6328 11.1382ZM25.6328 11.8752C26.3698 11.8752 26.9686 12.474 26.9686 13.211C26.9686 13.9479 26.3698 14.5467 25.6328 14.5467C24.8958 14.5467 24.297 13.9479 24.297 13.211C24.297 12.474 24.8958 11.8752 25.6328 11.8752ZM19 16.7347C23.0793 16.7347 26.531 19.0061 26.531 21.6863C26.531 24.3694 23.0793 26.6379 19 26.6379C14.9206 26.6379 11.4689 24.3694 11.4689 21.6863C11.4689 19.0061 14.9206 16.7347 19 16.7347ZM11.9986 17.4026C12.203 17.4054 12.416 17.4515 12.6204 17.5408C11.8805 18.1021 11.2933 18.747 10.8931 19.4753C10.6167 18.9053 10.6916 18.1943 11.0313 17.8171C11.2789 17.5408 11.6215 17.3997 11.9986 17.4026ZM26.0013 17.4026C26.3785 17.3997 26.721 17.5408 26.9686 17.8171C27.3083 18.1943 27.3832 18.9053 27.1068 19.4753C26.7066 18.747 26.1194 18.1021 25.3795 17.5408C25.5839 17.4515 25.7969 17.4054 26.0013 17.4026ZM16.052 19.245C15.315 19.245 14.7162 19.8438 14.7162 20.5808C14.7162 21.3178 15.315 21.9166 16.052 21.9166C16.789 21.9166 17.3878 21.3178 17.3878 20.5808C17.3878 19.8438 16.789 19.245 16.052 19.245ZM21.9479 19.245C21.2109 19.245 20.6121 19.8438 20.6121 20.5808C20.6121 21.3178 21.2109 21.9166 21.9479 21.9166C22.6849 21.9166 23.2837 21.3178 23.2837 20.5808C23.2837 19.8438 22.6849 19.245 21.9479 19.245ZM15.3381 23.7821C15.8073 24.7523 17.2582 25.6937 19 25.6937C20.7417 25.6937 22.2156 24.7523 22.6849 23.7821C21.8327 24.332 20.4883 24.7033 19 24.7033C17.5116 24.7033 16.1902 24.332 15.3381 23.7821Z" fill="white"/>
</svg>
