<svg width="38" height="38" viewBox="0 0 38 38" fill="none" xmlns="http://www.w3.org/2000/svg">
  <circle cx="19" cy="19" r="19" fill="#1DA1F2"/>
  <path d="M28 13.6572C27.3375 13.9388 26.6258 14.1283 25.8789 14.2137C26.6417 13.7764 27.2267 13.084 27.5022 12.2584C26.7892 12.6633 25.9986 12.9575 25.1568 13.1165C24.4832 12.4294 23.5237 12 22.4618 12C20.4223 12 18.7691 13.5829 18.7691 15.5343C18.7691 15.8113 18.8024 16.0816 18.8647 16.3393C15.7958 16.1922 13.0751 14.7849 11.253 12.646C10.936 13.1682 10.7539 13.7751 10.7539 14.4238C10.7539 15.6496 11.4053 16.7316 12.396 17.365C11.7909 17.3465 11.2212 17.1875 10.7234 16.9231C10.7234 16.9383 10.7234 16.9522 10.7234 16.9675C10.7234 18.6803 11.9958 20.1089 13.6857 20.4329C13.3763 20.5137 13.0495 20.5568 12.7124 20.5568C12.4749 20.5568 12.243 20.5342 12.018 20.4938C12.4881 21.8979 13.8519 22.9202 15.4676 22.9487C14.2042 23.8969 12.612 24.4621 10.8813 24.4621C10.5836 24.4621 10.2894 24.4455 10 24.4124C11.6345 25.4149 13.5749 26 15.6608 26C22.4534 26 26.1668 20.6144 26.1668 15.9438C26.1668 15.7907 26.1634 15.6383 26.1565 15.4866C26.8785 14.9876 27.505 14.3655 28 13.6572Z" fill="white"/>
</svg>
