<svg width="38" height="38" viewBox="0 0 38 38" fill="none" xmlns="http://www.w3.org/2000/svg">
  <circle cx="19" cy="19" r="19" fill="#45668E"/>
  <path d="M26.9064 24.2376C26.885 24.1916 26.8651 24.1534 26.8466 24.1228C26.5405 23.5716 25.9557 22.895 25.0923 22.0928L25.0741 22.0744L25.0649 22.0654L25.0557 22.0562H25.0464C24.6546 21.6827 24.4065 21.4315 24.3026 21.3029C24.1124 21.058 24.0698 20.81 24.1738 20.5588C24.2472 20.369 24.5229 19.9682 25.0004 19.3558C25.2515 19.0312 25.4505 18.7711 25.5973 18.5751C26.6567 17.1667 27.116 16.2667 26.9751 15.8748L26.9204 15.7832C26.8836 15.728 26.7887 15.6776 26.6358 15.6316C26.4826 15.5857 26.2867 15.5781 26.0478 15.6087L23.4027 15.627C23.3598 15.6118 23.2986 15.6132 23.2189 15.6316C23.1393 15.65 23.0995 15.6592 23.0995 15.6592L23.0534 15.6822L23.0169 15.7099C22.9863 15.7281 22.9526 15.7603 22.9158 15.8062C22.8792 15.852 22.8486 15.9057 22.8242 15.9669C22.5362 16.7078 22.2088 17.3967 21.8413 18.0335C21.6147 18.4132 21.4066 18.7422 21.2166 19.0209C21.0268 19.2994 20.8676 19.5046 20.7391 19.6362C20.6105 19.7678 20.4943 19.8733 20.39 19.953C20.2859 20.0327 20.2064 20.0664 20.1514 20.0541C20.0962 20.0418 20.0442 20.0295 19.995 20.0173C19.9094 19.9622 19.8405 19.8872 19.7885 19.7923C19.7363 19.6974 19.7012 19.5779 19.6828 19.434C19.6646 19.29 19.6537 19.1662 19.6507 19.062C19.6478 18.958 19.6491 18.8109 19.6553 18.6211C19.6617 18.4312 19.6646 18.3027 19.6646 18.2354C19.6646 18.0027 19.6691 17.7501 19.6782 17.4776C19.6875 17.2051 19.695 16.9892 19.7012 16.8302C19.7075 16.671 19.7104 16.5025 19.7104 16.3249C19.7104 16.1474 19.6996 16.0081 19.6782 15.907C19.6571 15.8061 19.6247 15.7081 19.582 15.6131C19.5391 15.5182 19.4762 15.4448 19.3937 15.3927C19.3111 15.3406 19.2083 15.2993 19.086 15.2686C18.7615 15.1952 18.3482 15.1554 17.846 15.1493C16.7071 15.137 15.9753 15.2106 15.6508 15.3698C15.5222 15.4371 15.4059 15.529 15.3018 15.6452C15.1916 15.78 15.1762 15.8535 15.2558 15.8656C15.6232 15.9207 15.8834 16.0523 16.0365 16.2605L16.0916 16.3708C16.1346 16.4504 16.1774 16.5913 16.2203 16.7933C16.2631 16.9954 16.2907 17.2189 16.3029 17.4637C16.3335 17.9107 16.3335 18.2934 16.3029 18.6118C16.2722 18.9303 16.2433 19.1782 16.2157 19.3558C16.188 19.5334 16.1467 19.6773 16.0916 19.7875C16.0365 19.8977 15.9998 19.965 15.9814 19.9895C15.963 20.0139 15.9477 20.0293 15.9355 20.0354C15.8559 20.0659 15.7732 20.0814 15.6875 20.0814C15.6017 20.0814 15.4976 20.0385 15.3752 19.9527C15.2528 19.867 15.1258 19.7492 14.9941 19.5991C14.8624 19.4491 14.7139 19.2393 14.5485 18.9699C14.3833 18.7006 14.2118 18.3822 14.0342 18.0148L13.8873 17.7483C13.7955 17.5769 13.67 17.3274 13.5108 16.9998C13.3515 16.6722 13.2107 16.3553 13.0883 16.0491C13.0393 15.9205 12.9658 15.8226 12.8679 15.7552L12.8219 15.7276C12.7913 15.7032 12.7423 15.6772 12.675 15.6495C12.6076 15.6219 12.5373 15.6021 12.4637 15.5899L9.94707 15.6082C9.6899 15.6082 9.51541 15.6664 9.42354 15.7828L9.38677 15.8378C9.3684 15.8685 9.35913 15.9174 9.35913 15.9848C9.35913 16.0522 9.3775 16.1349 9.41427 16.2328C9.78165 17.0962 10.1812 17.929 10.6128 18.7311C11.0445 19.5332 11.4196 20.1794 11.7379 20.6689C12.0563 21.1588 12.3808 21.6212 12.7115 22.0558C13.0422 22.4906 13.2611 22.7692 13.3682 22.8917C13.4754 23.0143 13.5596 23.106 13.6208 23.1672L13.8505 23.3876C13.9975 23.5346 14.2133 23.7106 14.498 23.9157C14.7828 24.1209 15.0981 24.3229 15.4441 24.5221C15.7901 24.7209 16.1926 24.8832 16.6519 25.0087C17.1111 25.1343 17.5581 25.1847 17.9929 25.1604H19.0492C19.2634 25.1419 19.4257 25.0746 19.536 24.9583L19.5725 24.9123C19.5971 24.8757 19.6201 24.8189 19.6414 24.7425C19.6628 24.666 19.6735 24.5817 19.6735 24.49C19.6673 24.2267 19.6873 23.9895 19.7331 23.7782C19.7789 23.5671 19.8311 23.4079 19.8894 23.3006C19.9477 23.1935 20.0136 23.1031 20.0868 23.0298C20.1602 22.9564 20.2125 22.9119 20.2432 22.8966C20.2737 22.8812 20.2981 22.8707 20.3165 22.8644C20.4634 22.8155 20.6364 22.8629 20.8355 23.0069C21.0346 23.1508 21.2213 23.3285 21.3959 23.5397C21.5704 23.751 21.7801 23.9881 22.025 24.2514C22.27 24.5147 22.4843 24.7105 22.6679 24.8393L22.8515 24.9495C22.9742 25.023 23.1334 25.0904 23.3293 25.1516C23.525 25.2128 23.6964 25.2281 23.8436 25.1975L26.1948 25.1608C26.4273 25.1608 26.6083 25.1223 26.7367 25.0459C26.8653 24.9694 26.9417 24.8851 26.9663 24.7934C26.9909 24.7015 26.9922 24.5974 26.971 24.4809C26.9492 24.3648 26.9277 24.2835 26.9064 24.2376Z" fill="white"/>
</svg>
